<svg xmlns="http://www.w3.org/2000/svg" xmlns:xlink="http://www.w3.org/1999/xlink" width="45" zoomAndPan="magnify" viewBox="0 0 33.75 33.749998" height="45" preserveAspectRatio="xMidYMid meet" version="1.0"><defs><clipPath id="ea4e0a063a"><path d="M 0 0 L 33.5 0 L 33.5 33.5 L 0 33.5 Z M 0 0 " clip-rule="nonzero"/></clipPath></defs><g clip-path="url(#ea4e0a063a)"><path fill="#f5f7f9" d="M 16.75 -9.605469 C 2.199219 -9.605469 -9.605469 2.199219 -9.605469 16.75 C -9.605469 31.300781 2.199219 43.101562 16.75 43.101562 C 31.300781 43.101562 43.101562 31.300781 43.101562 16.75 C 43.101562 2.199219 31.300781 -9.605469 16.75 -9.605469 Z M 16.75 -9.605469 " fill-opacity="1" fill-rule="nonzero"/></g><path fill="#0f7e62" d="M 24.367188 24.980469 C 23.941406 24.652344 23.324219 24.484375 22.519531 24.484375 L 14.390625 24.484375 C 14.648438 24.089844 14.902344 23.75 15.15625 23.472656 C 15.742188 22.773438 16.8125 21.773438 18.363281 20.5 C 19.925781 19.226562 21.042969 18.289062 21.699219 17.695312 C 22.359375 17.101562 23.015625 16.273438 23.652344 15.21875 C 24.292969 14.167969 24.609375 13 24.609375 11.714844 C 24.609375 10.898438 24.460938 10.101562 24.152344 9.347656 C 23.84375 8.582031 23.421875 7.910156 22.867188 7.328125 C 22.316406 6.742188 21.679688 6.285156 20.957031 5.957031 C 19.839844 5.457031 18.480469 5.214844 16.898438 5.214844 C 15.582031 5.214844 14.433594 5.40625 13.457031 5.796875 C 12.480469 6.191406 11.671875 6.703125 11.023438 7.328125 C 10.386719 7.964844 9.910156 8.667969 9.589844 9.441406 C 9.273438 10.21875 9.113281 10.972656 9.113281 11.683594 C 9.113281 12.277344 9.28125 12.746094 9.621094 13.085938 C 9.960938 13.425781 10.398438 13.59375 10.917969 13.59375 C 11.511719 13.59375 11.960938 13.402344 12.265625 13.03125 C 12.574219 12.660156 12.851562 12.128906 13.097656 11.429688 C 13.339844 10.738281 13.511719 10.3125 13.617188 10.152344 C 14.390625 8.964844 15.464844 8.367188 16.824219 8.367188 C 17.472656 8.367188 18.054688 8.515625 18.609375 8.804688 C 19.148438 9.089844 19.585938 9.503906 19.90625 10.027344 C 20.222656 10.546875 20.382812 11.140625 20.382812 11.808594 C 20.382812 12.425781 20.234375 13.042969 19.9375 13.691406 C 19.640625 14.339844 19.214844 14.953125 18.640625 15.558594 C 18.078125 16.164062 17.367188 16.769531 16.515625 17.375 C 16.039062 17.695312 15.242188 18.375 14.136719 19.394531 C 13.019531 20.414062 11.777344 21.648438 10.398438 23.070312 C 10.070312 23.421875 9.761719 23.910156 9.484375 24.523438 C 9.207031 25.140625 9.058594 25.640625 9.058594 26.011719 C 9.058594 26.597656 9.28125 27.097656 9.71875 27.53125 C 10.152344 27.964844 10.757812 28.179688 11.535156 28.179688 L 22.984375 28.179688 C 23.664062 28.179688 24.183594 28 24.515625 27.648438 C 24.855469 27.296875 25.023438 26.863281 25.023438 26.351562 C 25.003906 25.769531 24.789062 25.3125 24.367188 24.980469 " fill-opacity="1" fill-rule="nonzero"/></svg>