<svg xmlns="http://www.w3.org/2000/svg" xmlns:xlink="http://www.w3.org/1999/xlink" width="45" zoomAndPan="magnify" viewBox="0 0 33.75 33.749998" height="45" preserveAspectRatio="xMidYMid meet" version="1.0"><defs><clipPath id="3e601ca2d7"><path d="M 0 0 L 33.5 0 L 33.5 33.5 L 0 33.5 Z M 0 0 " clip-rule="nonzero"/></clipPath></defs><g clip-path="url(#3e601ca2d7)"><path fill="#f5f7f9" d="M 16.75 -9.304688 C 2.363281 -9.304688 -9.304688 2.363281 -9.304688 16.75 C -9.304688 31.140625 2.363281 42.808594 16.75 42.808594 C 31.140625 42.808594 42.808594 31.140625 42.808594 16.75 C 42.808594 2.363281 31.140625 -9.304688 16.75 -9.304688 Z M 16.75 -9.304688 " fill-opacity="1" fill-rule="nonzero"/></g><path fill="#0f7e62" d="M 24.269531 19.019531 C 23.996094 18.347656 23.578125 17.738281 23.03125 17.179688 C 22.484375 16.625 21.8125 16.132812 21.003906 15.699219 C 21.835938 15.007812 22.476562 14.28125 22.914062 13.558594 C 23.355469 12.824219 23.589844 11.941406 23.589844 10.921875 C 23.589844 10.144531 23.429688 9.410156 23.125 8.738281 C 22.820312 8.066406 22.359375 7.464844 21.761719 6.953125 C 21.152344 6.4375 20.449219 6.046875 19.617188 5.777344 C 18.800781 5.503906 17.886719 5.367188 16.898438 5.367188 C 15.765625 5.367188 14.722656 5.523438 13.808594 5.847656 C 12.894531 6.175781 12.121094 6.605469 11.5 7.128906 C 10.878906 7.667969 10.40625 8.222656 10.082031 8.8125 C 9.757812 9.398438 9.597656 9.964844 9.597656 10.492188 C 9.597656 11.046875 9.765625 11.488281 10.113281 11.824219 C 10.460938 12.160156 10.839844 12.328125 11.246094 12.328125 C 11.59375 12.328125 11.898438 12.265625 12.171875 12.140625 C 12.433594 12.015625 12.625 11.847656 12.726562 11.636719 C 12.90625 11.238281 13.097656 10.804688 13.304688 10.355469 C 13.515625 9.902344 13.738281 9.535156 13.976562 9.253906 C 14.210938 8.96875 14.535156 8.738281 14.945312 8.558594 C 15.355469 8.378906 15.867188 8.296875 16.488281 8.296875 C 17.414062 8.296875 18.148438 8.578125 18.683594 9.148438 C 19.230469 9.714844 19.503906 10.398438 19.503906 11.183594 C 19.503906 12.222656 19.167969 13.011719 18.484375 13.570312 C 17.800781 14.125 16.992188 14.398438 16.046875 14.398438 L 15.417969 14.398438 C 14.691406 14.398438 14.136719 14.546875 13.769531 14.851562 C 13.402344 15.15625 13.210938 15.554688 13.210938 16.046875 C 13.210938 16.550781 13.367188 16.941406 13.671875 17.222656 C 13.976562 17.507812 14.417969 17.644531 14.988281 17.644531 C 15.113281 17.644531 15.386719 17.621094 15.816406 17.582031 C 16.246094 17.539062 16.5625 17.519531 16.773438 17.519531 C 17.9375 17.519531 18.851562 17.855469 19.511719 18.535156 C 20.164062 19.21875 20.5 20.164062 20.5 21.363281 C 20.5 22.171875 20.3125 22.882812 19.921875 23.503906 C 19.535156 24.125 19.050781 24.585938 18.460938 24.902344 C 17.875 25.214844 17.253906 25.375 16.625 25.375 C 15.523438 25.375 14.660156 25.027344 14.050781 24.332031 C 13.441406 23.640625 12.863281 22.578125 12.339844 21.160156 C 12.253906 20.929688 12.085938 20.722656 11.816406 20.554688 C 11.550781 20.386719 11.269531 20.300781 10.984375 20.300781 C 10.40625 20.300781 9.933594 20.480469 9.546875 20.847656 C 9.15625 21.214844 8.96875 21.6875 8.96875 22.285156 C 8.96875 22.746094 9.125 23.335938 9.453125 24.039062 C 9.777344 24.742188 10.25 25.4375 10.878906 26.097656 C 11.511719 26.761719 12.308594 27.304688 13.285156 27.746094 C 14.261719 28.1875 15.363281 28.410156 16.59375 28.410156 C 17.800781 28.410156 18.902344 28.21875 19.914062 27.832031 C 20.921875 27.441406 21.769531 26.917969 22.507812 26.234375 C 23.230469 25.550781 23.789062 24.773438 24.15625 23.902344 C 24.535156 23.03125 24.710938 22.128906 24.710938 21.195312 C 24.679688 20.417969 24.542969 19.691406 24.269531 19.019531 " fill-opacity="1" fill-rule="nonzero"/></svg>