<svg xmlns="http://www.w3.org/2000/svg" xmlns:xlink="http://www.w3.org/1999/xlink" width="45" zoomAndPan="magnify" viewBox="0 0 33.75 33.749998" height="45" preserveAspectRatio="xMidYMid meet" version="1.0"><defs><clipPath id="87847120c4"><path d="M 0 0 L 33.5 0 L 33.5 33.5 L 0 33.5 Z M 0 0 " clip-rule="nonzero"/></clipPath></defs><g clip-path="url(#87847120c4)"><path fill="#f5f7f9" d="M 15.820312 -9.304688 C 1.433594 -9.304688 -10.238281 2.363281 -10.238281 16.75 C -10.238281 31.140625 1.433594 42.808594 15.820312 42.808594 C 30.207031 42.808594 41.878906 31.140625 41.878906 16.75 C 41.878906 2.363281 30.207031 -9.304688 15.820312 -9.304688 Z M 15.820312 -9.304688 " fill-opacity="1" fill-rule="nonzero"/></g><path fill="#0f7e62" d="M 19.042969 5.964844 C 18.71875 5.542969 18.277344 5.335938 17.730469 5.335938 C 17.25 5.335938 16.921875 5.429688 16.746094 5.609375 C 16.566406 5.796875 16.199219 6.28125 15.621094 7.089844 C 15.042969 7.886719 14.390625 8.613281 13.644531 9.261719 C 12.902344 9.914062 11.914062 10.523438 10.675781 11.109375 C 9.84375 11.5 9.265625 11.816406 8.929688 12.066406 C 8.605469 12.308594 8.4375 12.695312 8.4375 13.222656 C 8.4375 13.671875 8.605469 14.074219 8.941406 14.417969 C 9.277344 14.765625 9.65625 14.933594 10.085938 14.933594 C 10.988281 14.933594 12.742188 13.9375 15.347656 11.929688 L 15.347656 25.929688 C 15.347656 26.75 15.535156 27.367188 15.914062 27.789062 C 16.292969 28.210938 16.796875 28.417969 17.425781 28.417969 C 18.835938 28.417969 19.539062 27.390625 19.539062 25.332031 L 19.539062 7.707031 C 19.539062 6.972656 19.371094 6.386719 19.042969 5.964844 " fill-opacity="1" fill-rule="nonzero"/></svg>